<svg width="22" height="24" viewBox="0 0 22 24" fill="none" xmlns="http://www.w3.org/2000/svg">
<path d="M14.7585 9.70833C14.7585 10.9239 14.3143 12.0897 13.5235 12.9492C12.7327 13.8088 11.6602 14.2917 10.5419 14.2917C9.42353 14.2917 8.35101 13.8088 7.56023 12.9492C6.76945 12.0897 6.3252 10.9239 6.3252 9.70833C6.3252 8.49276 6.76945 7.32697 7.56023 6.46743C8.35101 5.60789 9.42353 5.125 10.5419 5.125C11.6602 5.125 12.7327 5.60789 13.5235 6.46743C14.3143 7.32697 14.7585 8.49276 14.7585 9.70833Z" fill="#82CDF8"/>
<path fill-rule="evenodd" clip-rule="evenodd" d="M10.1116 23.4491C4.48917 23.2039 0 18.1714 0 12C0 5.67152 4.7195 0.541626 10.5417 0.541626C16.3638 0.541626 21.0833 5.67152 21.0833 12C21.0833 18.3284 16.3638 23.4583 10.5417 23.4583H10.3972C10.3017 23.4583 10.2064 23.4552 10.1116 23.4491ZM3.77708 19.2302C3.69826 18.9841 3.67143 18.722 3.69859 18.4631C3.72574 18.2043 3.80618 17.9554 3.93393 17.735C4.06168 17.5146 4.23346 17.3283 4.43653 17.1899C4.63959 17.0515 4.86872 16.9646 5.10691 16.9356C9.21605 16.4412 11.8926 16.4859 15.9817 16.9459C16.2202 16.9729 16.4499 17.0587 16.6533 17.1968C16.8567 17.3349 17.0284 17.5216 17.1554 17.7427C17.2823 17.9638 17.3612 18.2135 17.386 18.4728C17.4108 18.732 17.3808 18.994 17.2983 19.2388C19.051 17.3115 20.0324 14.7098 20.0292 12C20.0292 6.30459 15.7814 1.68746 10.5417 1.68746C5.30193 1.68746 1.05417 6.30459 1.05417 12C1.05417 14.8164 2.09305 17.3693 3.77708 19.2302Z" fill="#82CDF8"/>
</svg>
