<svg width="24" height="24" viewBox="0 0 24 24" fill="none" xmlns="http://www.w3.org/2000/svg">
<path d="M6.85005 17.15L3.65005 15.4L4.70005 14.35L7.20005 14.7L11.1 10.8L3.30005 6.55005L4.70005 5.15005L14.25 7.60005L18.175 3.72505C18.4584 3.44172 18.8127 3.30005 19.238 3.30005C19.6634 3.30005 20.0174 3.44172 20.3 3.72505C20.5827 4.00838 20.7244 4.36272 20.725 4.78805C20.7257 5.21338 20.584 5.56738 20.3 5.85005L16.4 9.75005L18.85 19.3L17.45 20.7001L13.2 12.9L9.30005 16.8L9.65005 19.3L8.60005 20.35L6.85005 17.15Z" fill="#82CDF8"/>
</svg>
